<mxfile host="app.diagrams.net" modified="2022-02-25T01:53:53.541Z" agent="5.0 (Windows NT 10.0; Win64; x64) AppleWebKit/537.36 (KHTML, like Gecko) Chrome/98.0.4758.102 Safari/537.36" etag="rQfMrAjaap1mv3y6Krwr" version="16.6.4" type="github">
  <diagram id="vp5v3e73azvAuojMwe5M" name="Page-1">
    <mxGraphModel dx="1209" dy="781" grid="1" gridSize="10" guides="1" tooltips="1" connect="1" arrows="1" fold="1" page="1" pageScale="1" pageWidth="827" pageHeight="1169" math="0" shadow="0">
      <root>
        <mxCell id="0" />
        <mxCell id="1" parent="0" />
        <mxCell id="Z5zXivq1PZEn_P9SInMH-1" value="Test jw.kim" style="rounded=0;whiteSpace=wrap;html=1;" vertex="1" parent="1">
          <mxGeometry x="270" y="180" width="220" height="60" as="geometry" />
        </mxCell>
        <mxCell id="Z5zXivq1PZEn_P9SInMH-2" value="" style="rounded=0;whiteSpace=wrap;html=1;" vertex="1" parent="1">
          <mxGeometry x="270" y="260" width="220" height="60" as="geometry" />
        </mxCell>
      </root>
    </mxGraphModel>
  </diagram>
</mxfile>
